<?xml version="1.0" encoding="UTF-8"?>
<svg viewBox="0 0 1440 582" version="1.1" xmlns="http://www.w3.org/2000/svg" xmlns:xlink="http://www.w3.org/1999/xlink">
    <!-- Generator: Sketch 48.2 (47327) - http://www.bohemiancoding.com/sketch -->
    <title>Combined Shape</title>
    <desc>Created with Sketch.</desc>
    <defs>
        <linearGradient x1="71.9424803%" y1="113.992542%" x2="21.0001546%" y2="0%" id="linearGradient-1">
            <stop stop-color="#FED86D" offset="0%"></stop>
            <stop stop-color="#B9D182" offset="26.84269%"></stop>
            <stop stop-color="#A9CF88" offset="33.4693159%"></stop>
            <stop stop-color="#83CB93" offset="58.0821184%"></stop>
            <stop stop-color="#61C89E" offset="100%"></stop>
        </linearGradient>
        <path d="M-0.295705203,878 C1.07134235,877.366797 2.73633344,876.718326 4.69926807,876.054588 C132.70342,832.771807 384.969096,855.659639 788.017176,765.428896 C1191.06526,675.198153 1438.00018,402.588116 1438.00018,506.106831 C1438.00018,575.119308 1438.00018,698.435227 1438.00018,876.054588 C1414.05754,876.71833 1390.41285,877.366804 1367.0661,878.000011 L1440,878 L1440,1041 L-3.00018125,1041 L-3.00018125,884.541496 C-5.66660631,882.993414 -5.66660619,881.308713 -3.00018125,879.487376 L-3.00018125,878 L-0.295705203,878 Z" id="path-2"></path>
        <filter x="-1.3%" y="-3.0%" width="102.6%" height="106.8%" filterUnits="objectBoundingBox" id="filter-3">
            <feMorphology radius="2" operator="dilate" in="SourceAlpha" result="shadowSpreadOuter1"></feMorphology>
            <feOffset dx="0" dy="2" in="shadowSpreadOuter1" result="shadowOffsetOuter1"></feOffset>
            <feGaussianBlur stdDeviation="4" in="shadowOffsetOuter1" result="shadowBlurOuter1"></feGaussianBlur>
            <feColorMatrix values="0 0 0 0 0   0 0 0 0 0   0 0 0 0 0  0 0 0 0.136152627 0" type="matrix" in="shadowBlurOuter1"></feColorMatrix>
        </filter>
    </defs>
    <g id="PipePay---Desktop" stroke="none" stroke-width="1" fill="none" fill-rule="evenodd" transform="translate(0.000000, -473.000000)">
        <g id="Combined-Shape">
            <use fill="black" fill-opacity="1" filter="url(#filter-3)" xlink:href="#path-2"></use>
            <use fill="url(#linearGradient-1)" fill-rule="evenodd" xlink:href="#path-2"></use>
        </g>
    </g>
</svg>